<?xml version="1.0" encoding="utf-8"?>
<!-- Generator: Adobe Illustrator 17.1.0, SVG Export Plug-In . SVG Version: 6.00 Build 0)  -->
<!DOCTYPE svg PUBLIC "-//W3C//DTD SVG 1.1//EN" "http://www.w3.org/Graphics/SVG/1.1/DTD/svg11.dtd">
<svg version="1.1" id="Layer_1" xmlns="http://www.w3.org/2000/svg" xmlns:xlink="http://www.w3.org/1999/xlink" x="0px" y="0px"
	 viewBox="0 0 400 400" enable-background="new 0 0 400 400" xml:space="preserve">
<rect x="40" y="61" fill="#FF00FF" width="5" height="40"/>
<rect x="295" y="227" transform="matrix(-0.4897 -0.8719 0.8719 -0.4897 227.8217 627.3422)" fill="#FF00FF" width="5" height="40"/>
<rect x="227" y="223" transform="matrix(-0.4897 -0.8719 0.8719 -0.4897 130.0108 562.0942)" fill="#FF00FF" width="5" height="40"/>
<rect x="29" y="365" transform="matrix(-0.4897 -0.8719 0.8719 -0.4897 -288.7564 600.9932)" fill="#FF00FF" width="5" height="40"/>
<rect x="277" y="61" transform="matrix(0.9614 -0.2753 0.2753 0.9614 -11.499 80.0728)" fill="#FF00FF" width="5" height="40"/>
<rect x="77" y="270" transform="matrix(0.529 -0.8486 0.8486 0.529 -208.6572 204.06)" fill="#FF00FF" width="5" height="40"/>
<rect x="145" y="28" transform="matrix(0.529 -0.8486 0.8486 0.529 28.7402 147.7816)" fill="#FF00FF" width="5" height="40"/>
<rect x="134" y="213" transform="matrix(0.7672 -0.6414 0.6414 0.7672 -117.6724 141.7989)" fill="#FF931E" width="5" height="40"/>
<rect x="360" y="102" transform="matrix(0.529 -0.8486 0.8486 0.529 67.2095 365.0921)" fill="#FF931E" width="5" height="40"/>
<rect x="81" y="28" transform="matrix(0.529 -0.8486 0.8486 0.529 -1.4046 93.4693)" fill="#FF931E" width="5" height="40"/>
<rect x="216" y="107" transform="matrix(0.9947 -0.1032 0.1032 0.9947 -11.9365 23.2202)" fill="#FF931E" width="5" height="40"/>
<rect x="259" y="263" transform="matrix(0.9947 -0.1032 0.1032 0.9947 -27.8015 28.4889)" fill="#FF931E" width="5" height="40"/>
<rect x="47" y="346" transform="matrix(0.529 -0.8486 0.8486 0.529 -287.2835 214.3981)" fill="#FF931E" width="5" height="40"/>
<rect x="352" y="287" transform="matrix(0.529 -0.8486 0.8486 0.529 -93.5552 445.4405)" fill="#FF931E" width="5" height="40"/>
<rect x="370" y="28" transform="matrix(0.529 -0.8486 0.8486 0.529 134.7183 338.7234)" fill="#FF931E" width="5" height="40"/>
<rect x="99" y="120" transform="matrix(0.7844 -0.6202 0.6202 0.7844 -64.9506 93.1337)" fill="#FF931E" width="5" height="40"/>
<rect x="22" y="-1" transform="matrix(0.529 -0.8486 0.8486 0.529 -4.5841 29.7407)" fill="#FF931E" width="5" height="40"/>
<rect x="259" y="-14" transform="matrix(0.529 -0.8486 0.8486 0.529 118.0782 224.7429)" fill="#FF931E" width="5" height="40"/>
<rect x="234" y="176" transform="matrix(0.529 -0.8486 0.8486 0.529 -54.9368 293.0197)" fill="#FF931E" width="5" height="40"/>
<rect x="161" y="279" transform="matrix(0.529 -0.8486 0.8486 0.529 -176.7297 279.584)" fill="#FF931E" width="5" height="40"/>
<rect x="277" y="359" transform="matrix(0.529 -0.8486 0.8486 0.529 -189.9826 415.7062)" fill="#3FA9F5" width="5" height="40"/>
<rect x="366" y="240" transform="matrix(0.529 -0.8486 0.8486 0.529 -47.0754 435.1837)" fill="#3FA9F5" width="5" height="40"/>
<rect x="284" y="115" transform="matrix(0.529 -0.8486 0.8486 0.529 20.3803 306.7194)" fill="#3FA9F5" width="5" height="40"/>
<rect x="292" y="28" transform="matrix(0.529 -0.8486 0.8486 0.529 97.9792 272.5302)" fill="#3FA9F5" width="5" height="40"/>
<rect x="161" y="77" transform="matrix(-0.4271 -0.9042 0.9042 -0.4271 145.6238 286.2662)" fill="#3FA9F5" width="5" height="40"/>
<rect x="198" y="159" transform="matrix(0.529 -0.8486 0.8486 0.529 -57.4666 254.4618)" fill="#3FA9F5" width="5" height="40"/>
<rect x="25" y="240" transform="matrix(-1.640632e-02 -0.9999 0.9999 -1.640632e-02 -232.0138 291.7619)" fill="#3FA9F5" width="5" height="40"/>
<rect x="295" y="272" transform="matrix(-1.640632e-02 -0.9999 0.9999 -1.640632e-02 10.4202 594.2506)" fill="#3FA9F5" width="5" height="40"/>
<rect x="45" y="124" transform="matrix(0.5792 -0.8152 0.8152 0.5792 -97.3985 99.3158)" fill="#3FA9F5" width="5" height="40"/>
<rect x="113" y="339" transform="matrix(0.5792 -0.8152 0.8152 0.5792 -244.0486 245.2193)" fill="#3FA9F5" width="5" height="40"/>
<rect x="360" y="-1" transform="matrix(0.9096 0.4154 -0.4154 0.9096 40.6497 -148.868)" fill="#3FA9F5" width="5" height="40"/>
<rect x="88" y="22" transform="matrix(0.9096 0.4154 -0.4154 0.9096 25.625 -33.799)" fill="#3FA9F5" width="5" height="40"/>
<rect x="234" y="253" transform="matrix(0.9096 0.4154 -0.4154 0.9096 134.7771 -73.5742)" fill="#009245" width="5" height="40"/>
<rect x="366" y="94" transform="matrix(0.7983 -0.6023 0.6023 0.7983 5.6731 244.9384)" fill="#009245" width="5" height="40"/>
<rect x="156" y="120" transform="matrix(0.7983 -0.6023 0.6023 0.7983 -52.3475 123.703)" fill="#009245" width="5" height="40"/>
<rect x="143" y="325" transform="matrix(0.9729 0.2313 -0.2313 0.9729 83.7504 -24.2997)" fill="#009245" width="5" height="40"/>
<rect x="88" y="213" transform="matrix(0.9729 0.2313 -0.2313 0.9729 56.3513 -14.6149)" fill="#009245" width="5" height="40"/>
<rect x="370" y="336" transform="matrix(0.8859 -0.4639 0.4639 0.8859 -122.6355 213.406)" fill="#009245" width="5" height="40"/>
<rect x="288" y="128" transform="matrix(0.8859 -0.4639 0.4639 0.8859 -35.5077 151.6379)" fill="#009245" width="5" height="40"/>
<rect x="209" y="18" transform="matrix(0.9688 0.2479 -0.2479 0.9688 16.0178 -51.2355)" fill="#009245" width="5" height="40"/>
<rect x="22" y="38" transform="matrix(0.9688 0.2479 -0.2479 0.9688 15.14 -4.2627)" fill="#009245" width="5" height="40"/>
<rect x="11" y="342" transform="matrix(0.9688 0.2479 -0.2479 0.9688 90.1444 7.9493)" fill="#009245" width="5" height="40"/>
<rect x="266" y="336" transform="matrix(0.9688 0.2479 -0.2479 0.9688 96.614 -55.4407)" fill="#009245" width="5" height="40"/>
<rect x="179" y="189" transform="matrix(0.9272 -0.3746 0.3746 0.9272 -65.0806 83.2174)" fill="#009245" width="5" height="40"/>
<rect x="378" y="194" transform="matrix(0.9272 -0.3746 0.3746 0.9272 -52.461 158.1341)" fill="#009245" width="5" height="40"/>
<rect x="186" y="85" transform="matrix(0.9871 0.1602 -0.1602 0.9871 19.2583 -28.8451)" fill="#FF00FF" width="5" height="40"/>
<rect x="179" y="352" transform="matrix(0.529 -0.8486 0.8486 0.529 -230.2015 329.2434)" fill="#FF00FF" width="5" height="40"/>
<rect x="354" y="365" transform="matrix(0.529 -0.8486 0.8486 0.529 -158.8063 483.8768)" fill="#FF00FF" width="5" height="40"/>
<rect x="355" y="176" transform="matrix(0.529 -0.8486 0.8486 0.529 2.0558 395.7039)" fill="#FF00FF" width="5" height="40"/>
<rect x="36" y="178" transform="matrix(0.8865 0.4627 -0.4627 0.8865 95.9849 4.6564)" fill="#FF00FF" width="5" height="40"/>
<circle fill="#009245" cx="108.2" cy="188.1" r="4.3"/>
<circle fill="#009245" cx="332.2" cy="14.1" r="4.3"/>
<circle fill="#009245" cx="357.2" cy="277.1" r="4.3"/>
<circle fill="#009245" cx="372.2" cy="157.1" r="4.3"/>
<circle fill="#009245" cx="61.2" cy="19.1" r="4.3"/>
<circle fill="#009245" cx="211.2" cy="358.1" r="4.3"/>
<circle fill="#009245" cx="68.2" cy="392.1" r="4.3"/>
<circle fill="#FF7BAC" cx="21.2" cy="171.1" r="4.3"/>
<circle fill="#FF7BAC" cx="320.2" cy="167.1" r="4.3"/>
<circle fill="#FF7BAC" cx="219.2" cy="84.1" r="4.3"/>
<circle fill="#FF7BAC" cx="159.2" cy="23.1" r="4.3"/>
<circle fill="#FF7BAC" cx="381.2" cy="332.1" r="4.3"/>
<circle fill="#FF7BAC" cx="163.2" cy="196.1" r="4.3"/>
<circle fill="#FF7BAC" cx="118.2" cy="307.1" r="4.3"/>
<circle fill="#FF7BAC" cx="382.2" cy="35.1" r="4.3"/>
<circle fill="#FF7BAC" cx="13.2" cy="322.1" r="4.3"/>
<circle fill="#93278F" cx="290.2" cy="366.1" r="4.3"/>
<circle fill="#93278F" cx="108.2" cy="254.1" r="4.3"/>
<circle fill="#93278F" cx="328.2" cy="122.1" r="4.3"/>
<circle fill="#93278F" cx="98.2" cy="88.1" r="4.3"/>
<circle fill="#93278F" cx="286.2" cy="200.1" r="4.3"/>
<circle fill="#93278F" cx="207.2" cy="247.1" r="4.3"/>
<circle fill="#93278F" cx="357.2" cy="81.1" r="4.3"/>
</svg>
