<?xml version="1.0" encoding="utf-8"?>
<!-- Generator: Adobe Illustrator 18.1.1, SVG Export Plug-In . SVG Version: 6.00 Build 0)  -->
<svg version="1.1" id="Layer_1" xmlns="http://www.w3.org/2000/svg" xmlns:xlink="http://www.w3.org/1999/xlink" x="0px" y="0px"
	 viewBox="0 0 200 200" style="enable-background:new 0 0 200 200;" xml:space="preserve">
<style type="text/css">
	.st0{fill:#412F36;}
	.st1{fill:#D61F7E;}
	.st2{fill:#412F36;stroke:#D61F7E;stroke-width:3;stroke-miterlimit:10;}
	.st3{fill:none;stroke:#D61F7E;stroke-width:3;stroke-miterlimit:10;}
</style>
<g>
	<rect x="7.5" y="7.5" class="st0" width="185" height="185"/>
	<g>
		<path class="st1" d="M185,15v170H15V15H185 M200,0H0v200h200V0L200,0z"/>
	</g>
</g>
<rect x="29.5" y="25" class="st2" width="142.9" height="169.6"/>
<path class="st1" d="M92.7,122.8c4.5,22.5,38.1,16.6,46.7,15.7c1.2-0.1,2.1-1.1,2.1-2.3V56.8c0-1.3-1-2.3-2.3-2.3h-10.4
	c-1.3,0-2.3,1-2.3,2.2l-0.8,17.8c0,1.3-1.1,2.3-2.4,2.2C83.4,74.7,89.7,107.3,92.7,122.8z M125.7,95.9v30.8
	c-11.7,0.5-17.7-1.4-19-15.1C105.2,96.4,110.7,95.9,125.7,95.9z"/>
<path class="st1" d="M80.8,138.3H69.4c-1.4,0-2.6-1.2-2.6-2.6V62.1c0-1.4,1.2-2.6,2.6-2.6h11.4c1.4,0,2.6,1.2,2.6,2.6v73.6
	C83.4,137.1,82.2,138.3,80.8,138.3z"/>
<rect x="49.8" y="35" class="st2" width="104.4" height="15.2"/>
<rect x="49.8" y="49.2" class="st2" width="104.4" height="100"/>
<rect x="49.8" y="149.1" class="st2" width="104.4" height="26.9"/>
<g>
	<g>
		<path class="st1" d="M185,15v170H15V15H185 M200,0H0v200h200V0L200,0z"/>
	</g>
</g>
<path class="st1" d="M92.7,125.6c4.5,22.5,38.1,16.6,46.7,15.7c1.2-0.1,2.1-1.1,2.1-2.3V59.6c0-1.3-1-2.3-2.3-2.3h-10.4
	c-1.3,0-2.3,1-2.3,2.2l-0.8,17.8c0,1.3-1.1,2.3-2.4,2.2C83.4,77.5,89.7,110.1,92.7,125.6z M125.7,98.7v30.8
	c-11.7,0.5-17.7-1.4-19-15.1C105.2,99.2,110.7,98.7,125.7,98.7z"/>
<path class="st1" d="M80.8,141H69.4c-1.4,0-2.6-1.2-2.6-2.6V64.9c0-1.4,1.2-2.6,2.6-2.6h11.4c1.4,0,2.6,1.2,2.6,2.6v73.6
	C83.4,139.9,82.2,141,80.8,141z"/>
<line class="st3" x1="56.1" y1="155" x2="146.8" y2="155"/>
<line class="st3" x1="56.1" y1="162.5" x2="146.8" y2="162.5"/>
<line class="st3" x1="56.1" y1="169.3" x2="146.8" y2="169.3"/>
<rect x="49.8" y="35" class="st1" width="17" height="14.2"/>
</svg>
