<?xml version="1.0" encoding="utf-8"?>
<!-- Generator: Adobe Illustrator 18.1.1, SVG Export Plug-In . SVG Version: 6.00 Build 0)  -->
<svg version="1.1" id="Layer_1" xmlns="http://www.w3.org/2000/svg" xmlns:xlink="http://www.w3.org/1999/xlink" x="0px" y="0px"
	 viewBox="0 0 200 200" style="enable-background:new 0 0 200 200;" xml:space="preserve">
<style type="text/css">
	.st0{opacity:0.9;}
	.st1{fill:#2D2F4F;}
	.st2{fill:#33D1FF;}
	.st3{opacity:0.9;fill:#33D1FF;}
</style>
<g class="st0">
	<rect x="7.5" y="7.5" class="st1" width="185" height="185"/>
	<g>
		<path class="st2" d="M185,15v170H15V15H185 M200,0H0v200h200V0L200,0z"/>
	</g>
</g>
<path class="st3" d="M149.4,79c0-0.6-0.4-1.2-0.9-1.4c-5.5-1.9-32.9-10.1-37.1,12.3c-4.7,25.7,30.5,21.8,26.7,32.5
	c-3.4,9.6-18,4.8-24.5,1.3c-0.9-0.5-2.1,0.2-2.1,1.2l-0.3,10.5c0,0.6,0.4,1.2,0.9,1.4c5.7,2,34.8,11,40.5-13
	c6.2-26.5-38.4-19.2-24.4-35.8c0.2-0.3,0.5-0.4,0.9-0.5c2.1-0.3,10-1.2,17.9,2.6c0.9,0.5,2-0.2,2.1-1.2L149.4,79z"/>
<path class="st3" d="M99.4,68.8c-8-14.9-40.3-12.5-48.7-11.6c-1.1,0.1-2,1.1-2,2.2v78.5c0,1.2,1,2.2,2.2,2.2H61c1.2,0,2.2-1,2.2-2.2
	l0.3-23.1c0-1.3,1.1-2.3,2.4-2.2C104.7,114.7,108.5,85.6,99.4,68.8z M64.1,99.3V68.9c14.6,0,25.7,2,25.7,15.2
	C89.8,99.1,78.6,99.3,64.1,99.3z"/>
<g class="st0">
	<polygon class="st1" points="166.3,169.3 151.4,170.9 165.5,165.7 159.4,152 168.6,163.8 179.8,153.8 171.4,166.2 184.4,173.7 
		170,169.6 166.9,184.3 	"/>
	<path class="st2" d="M161.7,155.8l6.2,7.9l0.7,0.9l0.9-0.8l7.4-6.7l-5.6,8.3l-0.7,1l1,0.6l8.7,5l-9.6-2.8l-1.1-0.3l-0.2,1.1
		l-2.1,9.8l-0.3-10v-1.2l-1.2,0.1l-9.9,1.1l9.4-3.4l1.1-0.4l-0.5-1.1L161.7,155.8 M157.1,148.2l7.7,17.2l-17.7,6.5l18.8-2l0.7,18.9
		l3.9-18.5l18.1,5.2l-16.4-9.4l10.6-15.7l-14,12.7L157.1,148.2L157.1,148.2z"/>
</g>
<g class="st0">
	<polygon class="st1" points="145.9,40.7 135.2,41.8 145.3,38.1 140.9,28.3 147.6,36.8 155.6,29.6 149.5,38.5 158.9,43.9 
		148.5,40.9 146.3,51.5 	"/>
	<path class="st2" d="M142.6,31l4.4,5.7l0.5,0.7l0.6-0.6l5.3-4.8l-4,5.9l-0.5,0.7l0.7,0.4l6.2,3.6l-6.9-2l-0.8-0.2l-0.2,0.8l-1.5,7
		l-0.2-7.2v-0.8l-0.8,0.1l-7.1,0.8l6.7-2.5l0.8-0.3l-0.3-0.8L142.6,31 M139.3,25.5l5.5,12.4l-12.7,4.6l13.5-1.4l0.5,13.5l2.8-13.3
		l13,3.7l-11.7-6.8l7.6-11.2l-10.1,9.1L139.3,25.5L139.3,25.5z"/>
</g>
<g class="st0">
	<polygon class="st1" points="13.8,148.8 3.1,149.9 13.3,146.2 8.9,136.4 15.5,144.9 23.5,137.6 17.5,146.6 26.8,152 16.4,149 
		14.2,159.5 	"/>
	<path class="st2" d="M10.5,139.1l4.4,5.7l0.5,0.7l0.6-0.6l5.3-4.8l-4,5.9l-0.5,0.7l0.7,0.4l6.2,3.6l-6.9-2l-0.8-0.2l-0.2,0.8
		l-1.5,7l-0.2-7.2v-0.8l-0.8,0.1l-7.1,0.8l6.7-2.5l0.8-0.3l-0.3-0.8L10.5,139.1 M7.2,133.6l5.5,12.4L0,150.6l13.5-1.4l0.5,13.5
		l2.8-13.3l13,3.7L18,146.4l7.6-11.2l-10.1,9.1L7.2,133.6L7.2,133.6z"/>
</g>
<g class="st0">
	<polygon class="st1" points="84.1,171.8 73.4,172.9 83.5,169.3 79.1,159.4 85.7,167.9 93.7,160.7 87.7,169.6 97,175 86.7,172 
		84.5,182.6 	"/>
	<path class="st2" d="M80.8,162.2l4.4,5.7l0.5,0.7l0.6-0.6l5.3-4.8l-4,5.9l-0.5,0.7l0.7,0.4l6.2,3.6l-6.9-2l-0.8-0.2l-0.2,0.8
		l-1.5,7l-0.2-7.2v-0.8l-0.8,0.1l-7.1,0.8l6.7-2.5l0.8-0.3l-0.3-0.8L80.8,162.2 M77.4,156.7L83,169l-12.7,4.6l13.5-1.4l0.5,13.5
		l2.8-13.3l13,3.7l-11.7-6.8l7.6-11.2l-10.1,9.1L77.4,156.7L77.4,156.7z"/>
</g>
<g class="st0">
	<polygon class="st1" points="43.6,38.4 32.9,39.6 43,35.9 38.6,26 45.3,34.5 53.3,27.3 47.2,36.2 56.6,41.6 46.2,38.6 44,49.2 	"/>
	<path class="st2" d="M40.3,28.8l4.4,5.7l0.5,0.7l0.6-0.6l5.3-4.8l-4,5.9l-0.5,0.7l0.7,0.4l6.2,3.6l-6.9-2l-0.8-0.2L45.7,39l-1.5,7
		L44,38.8V38l-0.8,0.1L36,38.8l6.7-2.5l0.8-0.3l-0.3-0.8L40.3,28.8 M37,23.3l5.5,12.4l-12.7,4.6l13.5-1.4l0.5,13.5l2.8-13.3l13,3.7
		L47.9,36l7.6-11.2L45.3,34L37,23.3L37,23.3z"/>
</g>
</svg>
