<?xml version="1.0" encoding="utf-8"?>
<!-- Generator: Adobe Illustrator 18.1.1, SVG Export Plug-In . SVG Version: 6.00 Build 0)  -->
<svg version="1.1" id="Layer_1" xmlns="http://www.w3.org/2000/svg" xmlns:xlink="http://www.w3.org/1999/xlink" x="0px" y="0px"
	 viewBox="0 0 99.3 89.8" style="enable-background:new 0 0 99.3 89.8;" xml:space="preserve">
<style type="text/css">
	.st0{fill:#6D696D;}
	.st1{fill:none;}
</style>
<path class="st0" d="M41.8,36.5c0,0,13.2,3.9,16.5,16.2c1.5,5.5-2.6,11.6-7,14.7c-5,3.5-13.2,6.7-25,5.9c0,0-29.1-1.5-26.1-26.9
	l0.8,5.3c6.3,23,31.3,19.6,31.3,19.6c22.1-1.1,22.1-15.5,22.1-15.5c-0.2-13-17.4-19.6-17.4-19.6c-2.7-1-18.2-6.7-19.7-7.2
	c0,0-18.4-6.1-12.3-19.3c0,0,5.2-10.6,21.8-9.5c0,0,22.5,1.7,20.3,20.8L46.2,17C38.9,1.7,23.2,2.1,23.2,2.1
	c-16.5,0.8-15,12.2-15,12.2c0.2,9.8,12.6,13.9,12.6,13.9C22.9,29,39.8,35.7,41.8,36.5z"/>
<path class="st0" d="M57.5,36.5c0,0-13.2,3.9-16.5,16.2c-1.5,5.5,2.6,11.6,7,14.7c5,3.5,13.2,6.7,25,5.9c0,0,29.1-1.5,26.1-26.9
	l-0.8,5.3c-5.2,21-31.3,19.6-31.3,19.6c-22.1-1.1-22.1-15.5-22.1-15.5c0.2-13,17.4-19.6,17.4-19.6c2.7-1,18.2-6.7,19.7-7.2
	c0,0,18.4-6.1,12.2-19.3c0,0-5.2-10.6-21.8-9.5c0,0-22.5,1.7-20.3,20.8l0.6-4C59.2,1.6,76.1,2.1,76.1,2.1c16.5,0.8,15,12.2,15,12.2
	c-0.2,9.8-12.6,13.9-12.6,13.9C76.4,29,59.4,35.7,57.5,36.5z"/>
<g>
	<rect x="0.8" y="78.1" class="st1" width="97.8" height="9"/>
	<path class="st0" d="M26.2,78.2h0.9c2.4,0,4.4,1.7,4.4,4.3c0,1.9-1.3,4.3-4.8,4.3h-0.5V78.2z M26.6,86.4h0.2c2.4,0,4.2-1.5,4.2-3.9
		s-1.8-3.9-4.2-3.9h-0.2V86.4z"/>
	<path class="st0" d="M35.1,78.2H39l0.1,0.4h-3.6v3.6h3.2v0.4h-3.2v3.8h3.9l-0.2,0.4h-4.1V78.2z"/>
	<path class="st0" d="M46.1,79.1c-0.7-0.7-1.1-0.7-1.6-0.7c-1.3,0-1.8,1-1.8,2c0,0.8,0.4,1.5,1.4,1.8l0.7,0.2
		c0.8,0.3,1.7,0.7,1.7,2.2c0,1.2-0.9,2.5-2.4,2.5c-1.2,0-1.8-0.8-2.2-1.2l0.3-0.3c0.3,0.4,0.9,1.1,1.8,1.1c1.4,0,2-1.2,2-2.1
		c0-1.1-0.7-1.5-1.6-1.8L44,82.6c-0.8-0.2-1.8-0.8-1.8-2.2c0-1.4,1-2.4,2.3-2.4c1.1,0,1.7,0.6,2,0.9L46.1,79.1z"/>
	<path class="st0" d="M50.5,86.7l-0.4,0.1v-8.6l0.4-0.1V86.7z"/>
	<path class="st0" d="M59.1,82.3h2.6v3.5c-0.6,0.5-1.9,1.2-3.1,1.2c-2.5,0-4.5-2-4.5-4.5s2-4.5,4.5-4.5c1,0,2,0.4,2.8,1l-0.3,0.3
		c-0.9-0.6-1.5-0.9-2.5-0.9c-2.3,0-4.1,1.8-4.1,4.1s1.8,4.1,4.1,4.1c1,0,1.9-0.4,2.7-1v-2.9h-2.2V82.3z"/>
	<path class="st0" d="M73,86.9l-6.9-7.9v7.7l-0.4,0.1V78l6.9,7.8v-7.6l0.4-0.1V86.9z"/>
</g>
<g>
</g>
<g>
</g>
<g>
</g>
<g>
</g>
<g>
</g>
<g>
</g>
</svg>
