<?xml version="1.0" encoding="utf-8"?>
<!-- Generator: Adobe Illustrator 18.1.1, SVG Export Plug-In . SVG Version: 6.00 Build 0)  -->
<svg version="1.1" id="Layer_1" xmlns="http://www.w3.org/2000/svg" xmlns:xlink="http://www.w3.org/1999/xlink" x="0px" y="0px"
	 viewBox="0 0 300 300" style="enable-background:new 0 0 300 300;" xml:space="preserve">
<style type="text/css">
	.st0{fill:#A7A9AC;}
</style>
<g>
	<path class="st0" d="M96.3,242.3c5.3,3.1,10.9,5.8,16.7,8h55.3v2.9h-46.4c9,2.5,18.4,3.8,28.2,3.8c7.2,0,14.2-0.7,21-2.1v-10.5h27
		v1.1c1.3-0.7,2.6-1.3,3.8-2V121H96.3V242.3z M173.3,134.8h24.7v2.9h-24.7V134.8z M173.3,145.7h24.7v2.9h-24.7V145.7z M173.3,156.2
		h24.7v2.9h-24.7V156.2z M173.3,166.7h24.7v2.9h-24.7V166.7z M173.3,176.8h24.7v2.9h-24.7V176.8z M171,186.6h27v20.8h-27V186.6z
		 M171,215h27v20.8h-27V215z M101.1,133h67.2v45.2h-67.2V133z M101.1,186.6h67.2v2.9h-67.2V186.6z M101.1,197.2h67.2v2.9h-67.2
		V197.2z M101.1,207.8h67.2v2.9h-67.2V207.8z M101.1,218.4h67.2v2.9h-67.2V218.4z M101.1,229h67.2v2.9h-67.2V229z M101.1,239.6h67.2
		v2.9h-67.2V239.6z"/>
	<path class="st0" d="M150,45.1C91.5,45.1,44.1,92.5,44.1,151c0,37.4,19.4,70.2,48.6,89.1V117.4h112.6v123.9
		c30.3-18.6,50.6-52.1,50.6-90.3C255.9,92.5,208.5,45.1,150,45.1z"/>
</g>
<g>
</g>
<g>
</g>
<g>
</g>
<g>
</g>
<g>
</g>
<g>
</g>
</svg>
