<?xml version="1.0" encoding="utf-8"?>
<!-- Generator: Adobe Illustrator 18.1.1, SVG Export Plug-In . SVG Version: 6.00 Build 0)  -->
<svg version="1.1" id="Layer_1" xmlns="http://www.w3.org/2000/svg" xmlns:xlink="http://www.w3.org/1999/xlink" x="0px" y="0px"
	 viewBox="0 0 300 300" style="enable-background:new 0 0 300 300;" xml:space="preserve">
<style type="text/css">
	.st0{fill:#A7A9AC;}
</style>
<g>
	<path class="st0" d="M216.6,74.6l-46.5,86l-27.9-15.1l46.6-86.2c-3-1.1-6.1-2.1-9.2-2.9L133.9,141l-8.8-4.7l0.8,47.6l20.8,11.2
		l40.3-25.4l-8.3-4.5L224.2,81C221.8,78.8,219.3,76.6,216.6,74.6z"/>
	<path class="st0" d="M191.1,171.2l0.4,0.6l-47.5,30l-0.2-0.3l-21,13.7l-0.1-24.2l-0.7,0l-0.9-56.2l1.4,0l-0.5-0.2l43.6-80.7
		c-4.1-0.5-8.3-0.7-12.5-0.7c-58,0-105,47-105,105s47,105,105,105s105-47,105-105c0-25.2-8.9-48.4-23.8-66.5L191.1,171.2z
		 M190.5,233.3l-92.7-5.5l0.2-3.6l92.7,5.5L190.5,233.3z"/>
</g>
<g>
</g>
<g>
</g>
<g>
</g>
<g>
</g>
<g>
</g>
<g>
</g>
</svg>
