<?xml version="1.0" encoding="utf-8"?>
<!-- Generator: Adobe Illustrator 18.1.1, SVG Export Plug-In . SVG Version: 6.00 Build 0)  -->
<svg version="1.1" id="Layer_1" xmlns="http://www.w3.org/2000/svg" xmlns:xlink="http://www.w3.org/1999/xlink" x="0px" y="0px"
	 viewBox="0 0 75.7 51.4" style="enable-background:new 0 0 75.7 51.4;" xml:space="preserve">
<style type="text/css">
	.st0{fill:#2D2F4F;stroke:#33D1FF;stroke-width:5;stroke-linecap:round;stroke-miterlimit:10;}
	.st1{fill:#2D2F4F;}
	.st2{fill:#33D1FF;}
</style>
<line class="st0" x1="21.4" y1="29.7" x2="73.2" y2="2.5"/>
<g>
	<polygon class="st1" points="19.3,31.9 4.4,33.5 18.5,28.3 12.4,14.6 21.6,26.5 32.7,16.4 24.3,28.9 37.4,36.3 22.9,32.2 
		19.8,46.9 	"/>
	<path class="st2" d="M14.7,18.5l6.2,7.9l0.7,0.9l0.9-0.8l7.4-6.7l-5.6,8.3l-0.7,1l1,0.6l8.7,5l-9.6-2.8l-1.1-0.3l-0.2,1.1l-2.1,9.8
		l-0.3-10l0-1.2l-1.2,0.1l-9.9,1.1l9.4-3.4l1.1-0.4l-0.5-1.1L14.7,18.5 M10,10.8L17.7,28L0,34.5l18.8-2l0.7,18.9l3.9-18.5l18.1,5.2
		l-16.4-9.4L35.7,13l-14,12.7L10,10.8L10,10.8z"/>
</g>
<g>
</g>
<g>
</g>
<g>
</g>
<g>
</g>
<g>
</g>
<g>
</g>
</svg>
